<svg xmlns="http://www.w3.org/2000/svg" viewBox="0 0 60.47 42.8"><defs><style>.cls-1{fill:none;}.cls-2{fill:#f05f41;}.cls-3{fill:#fefefe;}</style></defs><title>Asset 1</title><g id="Layer_2" data-name="Layer 2"><g id="Layer_1-2" data-name="Layer 1"><path class="cls-1" d="M46.31,26.11a2.13,2.13,0,0,0-2,1.3v5.77a2.15,2.15,0,0,0,2,1.28,2,2,0,0,0,1.81-.89,5.09,5.09,0,0,0,.59-2.71V29.75A5.2,5.2,0,0,0,48.16,27,2,2,0,0,0,46.31,26.11Z"/><path class="cls-2" d="M42.53,24.7a21,21,0,0,0,.27-3.3,21.45,21.45,0,1,0-5.6,14.4,4.5,4.5,0,0,1-1.31.2,3.87,3.87,0,0,1-3.09-1.36A5.65,5.65,0,0,1,31.6,31V29.74a5.82,5.82,0,0,1,1.17-3.83,3.84,3.84,0,0,1,3.1-1.41A3.88,3.88,0,0,1,39,25.87a5.68,5.68,0,0,1,1.21,3.75v1.17c0,.34,0,.66-.06,1a21.41,21.41,0,0,0,2.41-7V24.7ZM29,27.1a9.14,9.14,0,0,1-2.1,6.4,7.38,7.38,0,0,1-5.6,2.3,7,7,0,0,1-5.6-2.2,9,9,0,0,1-2-6.1h3.6a6.13,6.13,0,0,0,1.1,3.8,3.61,3.61,0,0,0,3,1.4,3.69,3.69,0,0,0,3-1.5A7.23,7.23,0,0,0,25.5,27V7H29Z"/><path class="cls-2" d="M35.87,26.06a2.08,2.08,0,0,0-1.79,1,4.76,4.76,0,0,0-.67,2.68v1.06a4.78,4.78,0,0,0,.67,2.69,2.1,2.1,0,0,0,1.81,1c1.6,0,2.43-1.16,2.48-3.47V29.74a4.72,4.72,0,0,0-.68-2.69A2.1,2.1,0,0,0,35.87,26.06Z"/><path class="cls-3" d="M25.5,27a7.23,7.23,0,0,1-1.1,4.2,3.69,3.69,0,0,1-3,1.5,3.61,3.61,0,0,1-3-1.4,6.13,6.13,0,0,1-1.1-3.8H13.7a9,9,0,0,0,2,6.1,7,7,0,0,0,5.6,2.2,7.38,7.38,0,0,0,5.6-2.3A9.14,9.14,0,0,0,29,27.1V7H25.5Z"/><path class="cls-2" d="M39,34.6a5.29,5.29,0,0,0,1.11-2.83,21.46,21.46,0,0,1-2.92,4A3.74,3.74,0,0,0,39,34.6Z"/><path class="cls-3" d="M40.18,29.62A5.68,5.68,0,0,0,39,25.87a3.88,3.88,0,0,0-3.1-1.37,3.84,3.84,0,0,0-3.1,1.41,5.82,5.82,0,0,0-1.17,3.83V31a5.65,5.65,0,0,0,1.2,3.69A3.87,3.87,0,0,0,35.89,36a4.5,4.5,0,0,0,1.31-.2,21.46,21.46,0,0,0,2.92-4c0-.32.06-.64.06-1ZM38.37,31c0,2.31-.88,3.47-2.48,3.47a2.1,2.1,0,0,1-1.81-1,4.78,4.78,0,0,1-.67-2.69V29.73a4.76,4.76,0,0,1,.67-2.68,2.08,2.08,0,0,1,1.79-1,2.1,2.1,0,0,1,1.82,1,4.72,4.72,0,0,1,.68,2.69Z"/><path class="cls-2" d="M49.6,25.77a3.11,3.11,0,0,0-2.72-1.27,2.92,2.92,0,0,0-2.62,1.44l-.09-1.24H42.53V40.07h1.8V34.74A3,3,0,0,0,46.91,36a3.13,3.13,0,0,0,2.68-1.29,6.64,6.64,0,0,0,.95-3.92V29.57A6.74,6.74,0,0,0,49.6,25.77Zm-.87,5.09a5.09,5.09,0,0,1-.59,2.71,2,2,0,0,1-1.81.89,2.15,2.15,0,0,1-2-1.28V27.41a2.13,2.13,0,0,1,2-1.3,2,2,0,0,1,1.85.89,5.2,5.2,0,0,1,.57,2.75Z"/><path class="cls-3" d="M42.53,24.7v0Z"/><path class="cls-2" d="M58.58,35.8a4.42,4.42,0,0,1-.23-1.21A2.88,2.88,0,0,1,55.89,36a3.17,3.17,0,0,1-2.35-.84,3.22,3.22,0,0,1-.85-2.39,3.35,3.35,0,0,1,1.15-2.68,4.76,4.76,0,0,1,3.15-1h1.33V27.89a1.56,1.56,0,0,0-1.79-1.83,1.84,1.84,0,0,0-1.33.49,1.61,1.61,0,0,0-.51,1.23H52.87a2.87,2.87,0,0,1,.51-1.62,3.47,3.47,0,0,1,1.35-1.22,4.12,4.12,0,0,1,1.9-.44,3.61,3.61,0,0,1,2.59.85,3.28,3.28,0,0,1,.9,2.46v5.6a7,7,0,0,0,.35,2.23v.16Zm-2.41-1.45A2.47,2.47,0,0,0,57.44,34a2.37,2.37,0,0,0,.88-.93V30.42h-1a3.36,3.36,0,0,0-2,.58,1.83,1.83,0,0,0-.75,1.56,2.06,2.06,0,0,0,.38,1.37A1.68,1.68,0,0,0,56.17,34.35Z"/></g></g></svg>