<?xml version="1.0" encoding="utf-8"?>
<!-- Generator: Adobe Illustrator 22.1.0, SVG Export Plug-In . SVG Version: 6.00 Build 0)  -->
<svg version="1.1" id="Layer_1" xmlns="http://www.w3.org/2000/svg" xmlns:xlink="http://www.w3.org/1999/xlink" x="0px" y="0px"
	 viewBox="0 0 60.5 42.8" style="enable-background:new 0 0 60.5 42.8;" xml:space="preserve">
<style type="text/css">
	.st0{fill:none;}
	.st1{fill:#F05F41;}
	.st2{fill:#FEFEFE;}
</style>
<path class="st0" d="M46.3,26.1c-0.9,0-1.5,0.4-2,1.3v5.8c0.4,0.8,1.1,1.3,2,1.3c0.8,0,1.4-0.3,1.8-0.9c0.4-0.6,0.6-1.5,0.6-2.7
	v-1.1c0-1.2-0.2-2.2-0.6-2.8C47.8,26.4,47.2,26.1,46.3,26.1z"/>
<path class="st1" d="M42.5,24.7c0.2-1.1,0.3-2.2,0.3-3.3C42.8,9.6,33.2,0,21.4,0C9.6,0,0,9.6,0,21.4c0,11.8,9.6,21.4,21.4,21.4
	c6.3,0,11.9-2.7,15.8-7c-0.4,0.1-0.8,0.2-1.3,0.2c-1.3,0-2.3-0.5-3.1-1.4c-0.8-0.9-1.2-2.1-1.2-3.7v-1.2c0-1.6,0.4-2.9,1.2-3.8
	c0.8-0.9,1.8-1.4,3.1-1.4s2.3,0.5,3.1,1.4c0.8,0.9,1.2,2.2,1.2,3.7v1.2c0,0.3,0,0.7-0.1,1C41.3,29.6,42.1,27.3,42.5,24.7L42.5,24.7
	L42.5,24.7z M29,27.1c0,2.7-0.7,4.9-2.1,6.4c-1.4,1.5-3.3,2.3-5.6,2.3c-2.4,0-4.3-0.7-5.6-2.2s-2-3.5-2-6.1h3.6
	c0,1.6,0.4,2.9,1.1,3.8c0.7,0.9,1.7,1.4,3,1.4c1.2,0,2.2-0.5,3-1.5c0.7-1,1.1-2.4,1.1-4.2V7h-0.1h0.1H29V27.1z"/>
<path class="st1" d="M35.9,26.1c-0.7,0-1.3,0.3-1.8,1c-0.4,0.7-0.7,1.6-0.7,2.7v1.1c0,1.1,0.2,2,0.7,2.7c0.4,0.7,1.1,1,1.8,1
	c1.6,0,2.4-1.2,2.5-3.5v-1.3c0-1.1-0.2-2-0.7-2.7C37.2,26.4,36.6,26.1,35.9,26.1z"/>
<path class="st2" d="M25.5,27c0,1.8-0.4,3.2-1.1,4.2c-0.8,1-1.8,1.5-3,1.5c-1.3,0-2.3-0.5-3-1.4c-0.7-0.9-1.1-2.2-1.1-3.8h-3.6
	c0,2.6,0.7,4.6,2,6.1s3.2,2.2,5.6,2.2c2.3,0,4.2-0.8,5.6-2.3c1.4-1.5,2.1-3.7,2.1-6.4V7h-3.5V27z"/>
<path class="st1" d="M39,34.6c0.6-0.7,1-1.7,1.1-2.8c-0.8,1.5-1.8,2.8-2.9,4C37.9,35.6,38.5,35.2,39,34.6z"/>
<path class="st2" d="M40.2,29.6c0-1.6-0.4-2.8-1.2-3.7c-0.8-0.9-1.8-1.4-3.1-1.4s-2.3,0.5-3.1,1.4c-0.8,0.9-1.2,2.2-1.2,3.8v1.2
	c0,1.6,0.4,2.8,1.2,3.7c0.8,0.9,1.8,1.4,3.1,1.4c0.5,0,0.9-0.1,1.3-0.2c1.1-1.2,2.1-2.6,2.9-4c0-0.3,0.1-0.6,0.1-1V29.6z M38.4,31
	c0,2.3-0.9,3.5-2.5,3.5c-0.8,0-1.4-0.3-1.8-1c-0.4-0.7-0.7-1.5-0.7-2.7v-1.1c0-1.1,0.2-2,0.7-2.7c0.4-0.7,1-1,1.8-1
	c0.8,0,1.4,0.3,1.8,1c0.5,0.7,0.7,1.6,0.7,2.7V31z"/>
<path class="st1" d="M49.6,25.8c-0.6-0.8-1.5-1.3-2.7-1.3c-1.1,0-2,0.5-2.6,1.4l-0.1-1.2h-1.6c0,0,0,0,0,0v15.3h1.8v-5.3
	c0.6,0.8,1.5,1.3,2.6,1.3c1.2,0,2-0.4,2.7-1.3c0.6-0.9,0.9-2.2,0.9-3.9v-1.2C50.5,27.9,50.2,26.6,49.6,25.8z M48.7,30.9
	c0,1.2-0.2,2.1-0.6,2.7c-0.4,0.6-1,0.9-1.8,0.9c-0.9,0-1.6-0.4-2-1.3v-5.8c0.5-0.9,1.1-1.3,2-1.3c0.8,0,1.5,0.3,1.8,0.9
	c0.4,0.6,0.6,1.5,0.6,2.8V30.9z"/>
<path class="st2" d="M42.5,24.7L42.5,24.7C42.5,24.7,42.5,24.7,42.5,24.7L42.5,24.7z"/>
<path class="st1" d="M58.6,35.8c-0.1-0.2-0.2-0.6-0.2-1.2c-0.6,0.9-1.5,1.4-2.5,1.4c-1,0-1.8-0.3-2.4-0.8c-0.6-0.6-0.8-1.4-0.8-2.4
	c0-1.1,0.4-2,1.1-2.7s1.8-1,3.1-1h1.3v-1.2c0-0.7-0.1-1.1-0.4-1.4s-0.7-0.4-1.3-0.4c-0.5,0-1,0.2-1.3,0.5c-0.3,0.3-0.5,0.7-0.5,1.2
	h-1.8c0-0.6,0.2-1.1,0.5-1.6c0.3-0.5,0.8-0.9,1.4-1.2c0.6-0.3,1.2-0.4,1.9-0.4c1.1,0,2,0.3,2.6,0.8c0.6,0.6,0.9,1.4,0.9,2.5v5.6
	c0,0.9,0.1,1.6,0.3,2.2v0.2H58.6z M56.2,34.4c0.4,0,0.9-0.1,1.3-0.4s0.7-0.6,0.9-0.9v-2.6h-1c-0.9,0-1.5,0.2-2,0.6
	c-0.5,0.4-0.7,0.9-0.7,1.6c0,0.6,0.1,1.1,0.4,1.4C55.1,34.2,55.6,34.4,56.2,34.4z"/>
</svg>
